<svg width="150" height="28" viewBox="0 0 150 28" fill="none" xmlns="http://www.w3.org/2000/svg">
<g clip-path="url(#clip0)">
<path d="M52.5731 14.422H52.6697L55.837 5.73242H61.3708V21.8455H57.8413V9.91643H57.7447L53.9736 19.9163H50.927L47.2043 9.91643H47.0594V21.8455H43.6747V5.73242H49.3534L52.5731 14.422Z" fill="#205BFF"/>
<path d="M74.833 20.6511C73.7705 21.479 72.4384 22.098 69.8305 22.098C65.5282 22.098 63.3268 19.799 63.3268 15.3176C63.3268 11.1094 65.7938 8.60547 69.7339 8.60547C73.2152 8.60547 75.2194 10.6955 75.2194 13.8706C75.2194 14.5378 75.1952 15.1809 75.0504 16.1938H66.9046C66.9529 18.2395 67.9188 19.3649 70.241 19.3649C71.714 19.3649 72.7322 18.6977 73.2393 18.1913L74.833 20.6511ZM66.9771 13.8907H71.7864V13.5451C71.7864 12.0298 71.1103 11.222 69.6333 11.222C67.9913 11.226 67.0254 12.3755 66.9771 13.8907Z" fill="#205BFF"/>
<path d="M84.3793 4.42188H88.0055V21.8452H85.152L84.5725 20.7881H84.4759C84.0896 21.1579 82.9788 22.0542 81.1395 22.0542C78.262 22.0542 76.1611 20.2616 76.1611 16.0334C76.1611 10.5632 79.256 8.79479 82.1296 8.79479C83.4094 8.79479 83.9406 8.95556 84.3793 9.07211V4.42188ZM84.4759 18.2158V12.0544C84.1378 11.8012 83.341 11.5962 82.6649 11.5962C81.1677 11.5962 79.8597 12.2151 79.8597 15.732C79.8597 18.2601 80.8256 19.3171 82.2302 19.3171C83.2444 19.3171 83.9688 18.879 84.4759 18.2158Z" fill="#205BFF"/>
<path d="M92.6699 3.41309C93.9015 3.41309 94.8231 4.28526 94.8231 5.48299C94.8231 6.56416 93.9055 7.43633 92.6699 7.43633C91.5109 7.43633 90.5892 6.56416 90.5892 5.48299C90.5933 4.28526 91.5109 3.41309 92.6699 3.41309ZM90.9072 8.85913H94.5575V21.8452H90.9072V8.85913Z" fill="#205BFF"/>
<path d="M98.252 21.8455V5.73242H108.281V8.63028H101.922V12.9067H107.384V15.8046H101.922V21.8495H98.252V21.8455Z" fill="#205BFF"/>
<path d="M114.061 4.42188V17.7536C114.061 18.7182 114.519 19.0398 115.196 19.0398C115.461 19.0398 115.582 19.0157 115.703 18.9956V21.7327C115.268 21.8934 114.761 22.0542 113.964 22.0542C111.738 22.0542 110.41 20.8123 110.41 18.6539V4.42188H114.061Z" fill="#205BFF"/>
<path d="M117.276 15.4103C117.276 11.4112 119.039 8.62988 123.563 8.62988C128.275 8.62988 129.752 11.2946 129.752 15.3179C129.752 19.317 127.965 22.0983 123.442 22.0983C118.749 22.0983 117.276 19.4335 117.276 15.4103ZM123.559 19.3853C125.418 19.3853 126.001 18.0992 126.001 15.4545C126.001 12.7657 125.301 11.3388 123.414 11.3388C121.747 11.3388 121.019 12.625 121.019 15.2696C121.023 17.9625 121.723 19.3853 123.559 19.3853Z" fill="#205BFF"/>
<path d="M140.309 13.1559L138.087 21.8455H133.906L130.352 8.85938H134.002L135.451 14.8601C135.765 16.2146 135.982 17.2957 136.151 18.9074H136.248C136.393 17.4364 136.683 16.0578 136.997 14.8842L138.687 8.86339H142.168L143.641 14.7958C143.979 16.1502 144.317 17.4846 144.39 18.9114H144.486C144.655 17.4846 144.945 16.1985 145.307 14.7516L146.756 8.86741H149.996L146.466 21.8535H142.212L140.401 13.164H140.309V13.1559Z" fill="#205BFF"/>
<path d="M30.2326 22.6774C30.2487 22.6413 30.2688 22.6051 30.2809 22.5649C30.289 22.5368 30.289 22.5046 30.293 22.4725C30.301 22.4323 30.3091 22.3961 30.3091 22.3519L30.301 5.72839C30.301 5.69623 30.293 5.66408 30.289 5.63193C30.2849 5.59575 30.2849 5.55556 30.2729 5.51939C30.2688 5.50733 30.2648 5.49929 30.2608 5.48723C30.2447 5.43096 30.2246 5.37871 30.1964 5.32646C30.1924 5.32245 30.1884 5.31843 30.1884 5.31441C30.1562 5.25814 30.1159 5.20589 30.0716 5.16168C30.0233 5.11345 29.967 5.06923 29.9066 5.03306L22.7831 0.889244C22.5336 0.744552 22.2277 0.744552 21.9782 0.885225L15.1606 4.79995L8.35905 0.873167C8.10952 0.728475 7.80365 0.728475 7.55816 0.873167L0.406482 4.95268C0.37831 4.96875 0.354163 4.99287 0.330015 5.01297C0.297819 5.03708 0.265622 5.05718 0.23745 5.08129C0.217327 5.10139 0.201229 5.12952 0.181106 5.15364C0.156958 5.18579 0.128786 5.21393 0.108664 5.2501C0.0925653 5.27421 0.0885407 5.30235 0.076467 5.33048C0.0603687 5.36666 0.0402458 5.40283 0.028172 5.44302C0.0201229 5.47116 0.0201229 5.50331 0.0160983 5.53546C0.00804915 5.56762 0 5.60781 0 5.648L0.00804915 22.2715C0.00804915 22.5569 0.160983 22.8221 0.406482 22.9668L7.52596 27.1147C7.65072 27.187 7.79158 27.2232 7.93244 27.2232C8.06928 27.2232 8.21014 27.187 8.3349 27.1147L15.1445 23.208L21.9541 27.1307C22.0788 27.2031 22.2157 27.2393 22.3565 27.2393C22.4934 27.2393 22.6342 27.2031 22.755 27.1348L29.9026 23.0512C29.9308 23.0352 29.9549 23.011 29.9791 22.9909C30.0113 22.9668 30.0435 22.9467 30.0716 22.9226C30.0918 22.9025 30.1079 22.8744 30.128 22.8503C30.1521 22.8181 30.1803 22.79 30.2004 22.7538C30.2125 22.7297 30.2205 22.7016 30.2326 22.6774ZM28.6952 20.9452L23.1816 17.7016V10.3344L28.6872 7.12708L28.6952 20.9452ZM27.8943 5.72839L22.3726 8.94376L16.7704 5.72839L22.3726 2.51301L27.8943 5.72839ZM7.95256 2.49693L14.7541 6.42371L21.5717 10.3344V16.7611L8.39527 9.09649L2.4228 5.65202L7.95256 2.49693ZM7.93244 25.4909L1.61788 21.8133L1.60983 7.05473L7.1235 10.2982V18.1277C7.1235 18.2 7.13155 18.2684 7.15167 18.3367C7.15972 18.3648 7.17582 18.3889 7.18387 18.4171C7.19997 18.4532 7.21204 18.4934 7.23216 18.5296C7.25229 18.5618 7.28046 18.5899 7.30461 18.622C7.32473 18.6462 7.34083 18.6743 7.36095 18.6944C7.38912 18.7225 7.42132 18.7386 7.44949 18.7627C7.47766 18.7828 7.49779 18.8069 7.52596 18.823L7.53803 18.831L13.5226 22.2755L7.93244 25.4909ZM22.3525 25.507L15.6194 21.6284C15.5952 21.6123 15.5751 21.5923 15.551 21.5762L8.73333 17.6655V11.2387L21.9098 18.9034L27.8823 22.3479L22.3525 25.507Z" fill="#205BFF"/>
</g>
<defs>
<clipPath id="clip0">
<rect width="150" height="26.4706" fill="white" transform="translate(0 0.764648)"/>
</clipPath>
</defs>
</svg>
